<svg width="100" height="100" viewBox="0 0 100 100" fill="none" xmlns="http://www.w3.org/2000/svg">
<g clip-path="url(#clip0)">
<path d="M96.4602 30.8305C94.5058 30.8305 92.9227 32.4155 92.9227 34.368C92.9227 35.1635 93.1942 35.8885 93.6352 36.4796L88.5281 45.2417C87.9434 45.2324 87.2996 45.2661 86.5704 45.3685V37.6308C87.841 37.0923 88.7309 35.8349 88.7309 34.3683C88.7309 32.4158 87.1484 30.8308 85.194 30.8308C83.2396 30.8308 81.6556 32.4158 81.6556 34.3683C81.6556 35.8349 82.5477 37.0923 83.8173 37.6308V46.0042C80.3998 47.0498 75.6325 49.3681 68.6426 54.1187C69.5145 52.6665 72.1509 47.4037 64.0541 46.285C62.2668 34.8189 52.3755 26.0362 40.4067 26.0362C27.1729 26.0362 16.4439 36.7672 16.4439 49.9994C16.4439 50.8081 16.4866 51.6027 16.5633 52.3905C16.5633 52.3905 5.67258 56.9774 14.4385 61.8307C10.6353 63.7325 3.34431 69.0152 3.34431 69.0152C3.34431 69.0152 -5.20693 73.9913 5.03427 73.9637H68.8534C68.8534 73.9637 75.5019 73.9913 81.4245 65.3159C87.9864 55.7095 96.8531 54.8597 96.8531 50.8424C96.8531 47.8588 94.2302 46.2799 91.4943 45.6194L96.0158 37.8634C96.1644 37.8804 96.3081 37.9061 96.4602 37.9061C98.4156 37.9061 99.999 36.324 99.999 34.3686C99.9994 32.4158 98.4156 30.8305 96.4602 30.8305Z" fill="#0DACDF"/>
</g>
<defs>
<clipPath id="clip0">
<rect width="100" height="100" fill="white"/>
</clipPath>
</defs>
</svg>
