<svg width="140" height="140" viewBox="0 0 140 140" fill="none" xmlns="http://www.w3.org/2000/svg">
<g clip-path="url(#clip0)">
<path d="M138.805 46.6497C136.117 44.4253 137.878 41.1813 133.429 40.2538C130.224 39.5862 129.619 39.8796 129.53 40.0964C129.489 39.3478 129.126 36.1692 125.921 38.3067C125.921 38.3067 124.159 37.8434 124.438 40.0681C124.438 40.0681 120.823 41.1804 117.949 43.3121C115.076 45.4436 103.953 50.1711 88.1028 46.1855C72.2531 42.1999 58.4419 36.8232 46.6695 44.9803C46.6695 44.9803 34.6197 50.913 29.0583 63.4261C23.4972 75.9394 16.3596 79.7403 6.34935 79.5546C-3.66187 79.369 -0.416945 89.5656 6.34935 85.672C13.1156 81.7791 21.6431 86.1353 29.8929 73.2516C38.1427 60.3668 37.5868 56.3812 42.7775 53.5078C42.7775 53.5078 43.5194 58.5129 52.6029 63.6107C52.6029 63.6107 47.9683 66.4841 48.8949 68.0596C49.8215 69.6349 52.5102 73.4361 52.5102 73.4361C52.5102 73.4361 50.1928 75.0116 51.2123 76.4024C52.2318 77.7932 59.0908 84.6522 59.7398 85.8574C60.3887 87.0626 63.355 92.7166 65.3009 91.6044C65.3009 91.6044 67.2477 94.0145 68.5448 93.087C68.5448 93.087 71.9745 92.6235 69.1938 89.1011C66.4131 85.5788 65.7642 85.0228 65.7642 85.0228C65.7642 85.0228 68.4519 81.7788 61.3153 74.7342C61.3153 74.7342 72.9949 67.226 71.7898 64.4453C70.5848 61.6647 82.8203 77.1441 88.752 72.8798C88.752 72.8798 83.7469 81.037 83.1909 84.2807C82.6349 87.5247 79.343 92.2756 74.3848 92.5305C74.3848 92.5305 69.5641 92.4376 70.7695 101.244C70.7695 101.244 72.3448 103.468 73.1796 101.8C74.0142 100.131 75.0338 97.7213 77.3511 96.702C79.6685 95.6825 85.1367 94.107 87.7327 88.2673C90.328 82.428 96.5383 77.7003 96.5383 77.7003C96.5383 77.7003 101.915 88.1748 101.915 89.1014C101.915 90.0279 97.4658 92.9943 97.0943 95.034C97.0943 95.034 92.6454 98.4634 94.035 99.5759C94.035 99.5759 94.591 102.356 97.0943 100.41C99.5973 98.4644 101.822 96.7025 103.304 95.8686C104.787 95.034 104.973 93.8298 106.734 91.8828C108.495 89.936 107.383 87.8972 105.992 85.1167C104.601 82.336 103.953 75.6615 103.953 75.6615C103.953 75.6615 112.666 73.6093 114.149 70.0007C115.632 66.3924 120.452 60.0894 123.325 57.772C126.199 55.4548 131.946 54.8056 133.058 53.6007C133.058 53.6007 136.21 55.8252 137.507 52.7661L136.951 52.1172C136.951 52.1172 138.805 51.561 138.805 50.2631C138.805 50.264 141.494 48.8742 138.805 46.6497Z" fill="#0DACDF"/>
</g>
<defs>
<clipPath id="clip0">
<rect width="140" height="140" fill="white"/>
</clipPath>
</defs>
</svg>
