<svg width="100" height="100" viewBox="0 0 100 100" fill="none" xmlns="http://www.w3.org/2000/svg">
<g clip-path="url(#clip0)">
<path d="M91.4531 25.0847C81.465 25.5531 84.6346 37.1103 75.6813 37.9831C75.7071 37.2997 75.7221 36.6112 75.7221 35.9102C75.7221 35.3553 75.2795 34.9016 74.7233 34.8915C71.3005 34.8216 66.1851 34.003 60.7676 33.1394C54.3921 32.1243 47.7984 31.0725 43.0099 31.0725C41.6407 31.0725 40.5047 31.1558 39.5369 31.3305C30.4036 32.9611 23.4048 41.657 16.6383 50.0639C11.2123 56.8016 6.09008 63.167 0.808113 64.292C0.323391 64.3988 -0.0172864 64.8351 0.000678315 65.332C0.0183164 65.8265 0.392637 66.2357 0.884871 66.303C2.83192 66.5669 4.65486 66.8211 6.37621 67.068L1.0214 74.9238H10.1406L13.3903 68.0998C15.7594 68.4575 17.8952 68.7926 19.8302 69.0912C21.5303 69.3583 23.074 69.5991 24.5046 69.8124L22.3185 74.9235H31.5017V70.7518C33.9423 71.014 36.1647 71.1512 38.537 71.1512C39.7201 71.1512 40.9126 71.1163 42.1888 71.0454C44.193 70.936 46.4811 70.6887 48.8968 70.2184V74.9242H57.0159L55.7878 68.2615C58.7216 67.132 61.6427 65.5776 64.3106 63.4447C65.3418 62.618 66.3001 61.7259 67.1925 60.7803C71.8515 66.6519 71.6405 74.9245 71.6405 74.9245H81.1135C80.9068 67.7667 74.6861 59.6103 71.1199 55.5042C72.5933 52.9425 73.7153 50.09 74.4806 46.9543C81.9807 44.4014 89.2999 37.0126 92.5166 35.9109C95.9005 34.7504 100.001 35.6003 100.001 31.4651C100 26.4402 94.447 24.9468 91.4531 25.0847Z" fill="#E9E5E5"/>
</g>
<defs>
<clipPath id="clip0">
<rect width="100" height="100" fill="white"/>
</clipPath>
</defs>
</svg>
