<svg width="100" height="100" viewBox="0 0 100 100" fill="none" xmlns="http://www.w3.org/2000/svg">
<path d="M92.2069 36.1898C89.3398 32.8955 84.8408 28.69 79.7805 29.0376C78.8563 27.9281 76.0348 24.3615 73.5763 20.8161C70.9149 16.7137 65.4066 13.312 63.4515 15.9034C63.1876 16.4404 63.0718 17.9024 65.6093 22.4887C63.7397 20.0107 61.6182 17.5814 58.972 16.7991C55.6627 15.8132 53.4056 17.1737 56.9133 22.7072C62.2131 32.9771 63.0776 36.0885 62.91 37.3514C62.8048 38.1062 62.111 38.9146 60.7321 38.2461C55.762 36.3444 44.3337 34.4819 40.0732 34.4819C20.4719 34.4819 14.9268 44.5725 11.9439 49.9966C11.9439 49.9966 9.30628 55.352 9.18869 64.9626C6.78047 63.1357 4.39154 60.7042 2.86107 60.7042C0.962325 60.704 0 62.0012 0 64.5583C0 67.1141 3.71825 72.1051 8.51158 74.707C9.52217 75.2811 10.7474 75.2741 12.0048 74.6863C12.4455 74.4739 12.7109 74.3967 12.8434 74.3666C15.1204 76.0438 17.0384 77.3374 18.542 78.2111C23.1631 83.1286 22.3448 82.36 44.332 84.9903C44.332 84.9903 47.6878 85.2401 48.9963 83.1984C49.9726 80.9394 48.5808 79.471 46.3854 78.2557C45.7868 77.9105 44.0518 77.1177 43.3541 76.8824C54.9973 77.8984 63.8368 78.9989 65.1821 79.5964C66.6933 82.3742 69.8182 84.0275 74.5094 84.5197C76.7178 84.5197 78.2493 83.8453 79.0331 82.5105C80.5732 80.1044 76.317 78.0033 74.0033 76.6471C71.9382 75.4909 70.921 73.5155 71.017 73.1331C71.0325 73.0945 71.0508 73.0378 71.1922 72.9739C74.546 71.5246 77.5872 69.2294 80.2179 66.1535C82.638 63.325 83.974 60.4964 84.186 57.7352C87.2378 57.5797 91.4165 55.7214 94.4178 54.1778C98.1239 52.2725 99.9997 50.0256 99.9997 47.5023C100.005 43.9103 96.3552 40.9606 92.2069 36.1898ZM81.7313 40.3035C80.3174 40.3035 79.1646 39.3925 79.1646 38.2702C79.1646 37.151 80.3174 36.2405 81.7313 36.2405C83.148 36.2405 84.2978 37.1508 84.2978 38.2702C84.2978 39.3913 83.148 40.3035 81.7313 40.3035Z" fill="#0DACDF"/>
</svg>
