<svg width="300" height="300" viewBox="0 0 300 300" fill="none" xmlns="http://www.w3.org/2000/svg">
<g clip-path="url(#clip0)">
<path d="M150.584 87.8929C116.663 87.8929 89.0625 115.496 89.0625 149.416C89.0625 183.337 116.663 210.938 150.584 210.938C184.504 210.938 212.107 183.337 212.107 149.416C212.107 115.496 184.504 87.8929 150.584 87.8929ZM150.584 175.784C159.966 175.784 168.72 170.728 173.433 162.591C175.843 158.384 181.217 156.917 185.44 159.389C189.635 161.82 191.077 167.191 188.642 171.396C180.805 184.941 166.223 193.359 150.584 193.359C126.354 193.359 106.641 173.646 106.641 149.416C106.641 125.185 126.354 105.471 150.584 105.471C166.223 105.471 180.805 113.892 188.642 127.435C191.077 131.639 189.635 137.013 185.44 139.442C181.217 141.888 175.843 140.437 173.433 136.24C168.72 128.103 159.966 123.047 150.584 123.047C136.045 123.047 124.216 134.876 124.216 149.414C124.216 163.955 136.045 175.784 150.584 175.784Z" fill="#0DACDF"/>
<path d="M264.842 43.3617C264.842 38.5048 260.909 34.5749 256.052 34.5749C223.29 34.5749 191.576 24.9688 164.317 6.80011L155.459 0.894952C152.506 -1.0803 148.661 -1.0803 145.708 0.894952L136.851 6.80011C109.593 24.9688 77.877 34.5749 45.1172 34.5749C40.258 34.5749 36.3281 38.5048 36.3281 43.3617V143.708C36.3281 213.993 81.1317 276.739 147.803 298.959C148.705 299.261 149.648 299.414 150.584 299.414C151.52 299.414 152.465 299.259 153.365 298.959C220.038 276.739 264.842 213.993 264.842 143.708V43.3617ZM150.584 228.516C106.966 228.516 71.4844 193.034 71.4844 149.416C71.4844 105.798 106.966 70.3148 150.584 70.3148C194.202 70.3148 229.685 105.798 229.685 149.416C229.685 193.034 194.202 228.516 150.584 228.516Z" fill="#0DACDF"/>
</g>
<defs>
<clipPath id="clip0">
<rect width="300" height="300" fill="white"/>
</clipPath>
</defs>
</svg>
