<svg width="73" height="56" viewBox="0 0 73 56" fill="none" xmlns="http://www.w3.org/2000/svg">
<path d="M56.2351 0L56.3127 1.26875C56.3606 1.99675 56.121 2.55325 55.5895 2.975C54.8732 3.5385 53.7098 3.822 52.7334 3.94975C52.7699 3.3005 52.8041 2.646 52.8315 1.96875C51.4194 1.96875 43.9551 1.96875 36.5091 1.96875C36.5023 1.96875 36.4977 1.96875 36.4909 1.96875C29.0426 1.96875 21.5829 1.96875 20.1708 1.96875C20.1982 2.646 20.2347 3.3005 20.2712 3.94975C19.2925 3.822 18.1314 3.53675 17.4128 2.97325C16.8767 2.55325 16.6372 1.995 16.6851 1.267L16.7649 0H8.1167L8.14636 1.232C8.62542 22.4263 20.3214 27.5573 25.6755 28.7945L24.7972 29.7517L27.375 31.1465L28.2556 30.1822C30.0167 32.6987 31.552 34.3052 32.2067 35.5897H31.0113V37.5095H32.4713C31.8805 40.474 24.0672 43.9075 24.0672 43.9075V45.717H22.1509V56H36.4886H36.5069H50.8445V45.717H48.9328V43.9075C48.9328 43.9075 41.1173 40.474 40.5264 37.5095H41.9864V35.5897H40.7933C41.448 34.307 42.9833 32.704 44.7444 30.1822L45.6227 31.1465L48.2051 29.7517L47.3245 28.7945C52.6809 27.5573 64.3769 22.4263 64.8559 1.232L64.8833 0H56.2351ZM11.3401 2.42025H13.6464C13.8632 3.29 14.3764 4.05475 15.1658 4.6725C16.7444 5.90625 19.0097 6.279 20.4514 6.3945C21.2932 15.722 23.5357 21.9503 25.8648 26.2973C21.2818 25.0093 12.1431 20.2178 11.3401 2.42025ZM47.1329 26.2973C49.4621 21.9503 51.7045 15.722 52.5463 6.3945C53.9904 6.279 56.2534 5.90625 57.8297 4.6725C58.6236 4.05475 59.1346 3.29 59.3513 2.42025H61.6576C60.8592 20.2178 51.7182 25.0093 47.1329 26.2973Z" fill="#0DACDF"/>
</svg>
