<svg width="40" height="40" viewBox="0 0 40 40" fill="none" xmlns="http://www.w3.org/2000/svg">
<g clip-path="url(#clip0)">
<path d="M9.95219 3.55937L0 18.9618L8.44961 35.4513L18.4018 20.048L9.95219 3.55937ZM4.9625 19.9783C4.16852 19.9783 3.52562 19.3354 3.52562 18.5414C3.52562 17.7483 4.16852 17.1045 4.9625 17.1045C5.7557 17.1045 6.39938 17.7482 6.39938 18.5414C6.39938 19.3354 5.7557 19.9783 4.9625 19.9783ZM8.44391 26.8383C7.64992 26.8383 7.00703 26.1945 7.00703 25.4014C7.00703 24.6074 7.64992 23.9645 8.44391 23.9645C9.23703 23.9645 9.88078 24.6074 9.88078 25.4014C9.88078 26.1945 9.23703 26.8383 8.44391 26.8383ZM8.9168 13.927C8.12367 13.927 7.47992 13.2841 7.47992 12.4901C7.47992 11.697 8.12367 11.0532 8.9168 11.0532C9.71078 11.0532 10.3537 11.697 10.3537 12.4901C10.3537 13.2841 9.71078 13.927 8.9168 13.927ZM12.7422 21.0867C11.9482 21.0867 11.3053 20.4438 11.3053 19.6498C11.3053 18.8559 11.9482 18.213 12.7422 18.213C13.5353 18.213 14.1791 18.8559 14.1791 19.6498C14.1791 20.4437 13.5353 21.0867 12.7422 21.0867Z" fill="#0DACDF"/>
<path d="M20.4709 21.3855L10.3242 37.0877L29.542 38.0508L39.688 22.3478L20.4709 21.3855ZM19.4273 34.558C18.6342 34.558 17.9904 33.9151 17.9904 33.1211C17.9905 32.3279 18.6342 31.6842 19.4273 31.6842C20.2213 31.6842 20.8642 32.3279 20.8642 33.1211C20.8642 33.9151 20.2213 34.558 19.4273 34.558ZM30.9403 28.2752C30.1463 28.2752 29.5035 27.6314 29.5035 26.8383C29.5035 26.0443 30.1463 25.4014 30.9403 25.4014C31.7335 25.4014 32.3772 26.0443 32.3772 26.8383C32.3772 27.6314 31.7335 28.2752 30.9403 28.2752Z" fill="#0DACDF"/>
<path d="M31.3024 2.92219L11.8956 1.94922L20.5941 18.9256L40 19.8978L31.3024 2.92219ZM26.7003 12.463C25.9063 12.463 25.2634 11.8192 25.2634 11.0261C25.2634 10.2321 25.9063 9.58922 26.7003 9.58922C27.4934 9.58922 28.1372 10.2321 28.1372 11.0261C28.1372 11.8193 27.4935 12.463 26.7003 12.463Z" fill="#0DACDF"/>
</g>
<defs>
<clipPath id="clip0">
<rect width="40" height="40" fill="white"/>
</clipPath>
</defs>
</svg>
