<svg width="76" height="76" viewBox="0 0 76 76" fill="none" xmlns="http://www.w3.org/2000/svg">
<path d="M26.2426 0H8.78869C3.94265 0 0 3.94265 0 8.78869V26.2426C0 31.0886 3.94265 35.0312 8.78869 35.0312H26.2426C31.0886 35.0312 35.0312 31.0886 35.0312 26.2426V8.78869C35.0312 3.94265 31.0886 0 26.2426 0ZM29.0938 26.2426C29.0938 27.8147 27.8147 29.0938 26.2426 29.0938H8.78869C7.21659 29.0938 5.9375 27.8147 5.9375 26.2426V8.78869C5.9375 7.21659 7.21659 5.9375 8.78869 5.9375H26.2426C27.8147 5.9375 29.0938 7.21659 29.0938 8.78869V26.2426Z" fill="black"/>
<path d="M67.0938 0H49.875C44.9641 0 40.9688 3.99534 40.9688 8.90625V26.125C40.9688 31.0359 44.9641 35.0312 49.875 35.0312H67.0938C72.0047 35.0312 76 31.0359 76 26.125V8.90625C76 3.99534 72.0047 0 67.0938 0ZM70.0625 26.125C70.0625 27.762 68.7307 29.0938 67.0938 29.0938H49.875C48.238 29.0938 46.9062 27.762 46.9062 26.125V8.90625C46.9062 7.26928 48.238 5.9375 49.875 5.9375H67.0938C68.7307 5.9375 70.0625 7.26928 70.0625 8.90625V26.125Z" fill="black"/>
<path d="M26.2426 40.9688H8.78869C3.94265 40.9688 0 44.9114 0 49.7574V67.2113C0 72.0574 3.94265 76 8.78869 76H26.2426C31.0886 76 35.0312 72.0574 35.0312 67.2113V49.7574C35.0312 44.9114 31.0886 40.9688 26.2426 40.9688ZM29.0938 67.2113C29.0938 68.7834 27.8147 70.0625 26.2426 70.0625H8.78869C7.21659 70.0625 5.9375 68.7834 5.9375 67.2113V49.7574C5.9375 48.1853 7.21659 46.9062 8.78869 46.9062H26.2426C27.8147 46.9062 29.0938 48.1853 29.0938 49.7574V67.2113Z" fill="black"/>
<path d="M67.0938 40.9688H49.875C44.9641 40.9688 40.9688 44.9641 40.9688 49.875V67.0938C40.9688 72.0047 44.9641 76 49.875 76H67.0938C72.0047 76 76 72.0047 76 67.0938V49.875C76 44.9641 72.0047 40.9688 67.0938 40.9688ZM70.0625 67.0938C70.0625 68.7307 68.7307 70.0625 67.0938 70.0625H49.875C48.238 70.0625 46.9062 68.7307 46.9062 67.0938V49.875C46.9062 48.238 48.238 46.9062 49.875 46.9062H67.0938C68.7307 46.9062 70.0625 48.238 70.0625 49.875V67.0938Z" fill="black"/>
</svg>
