<svg width="101" height="100" viewBox="0 0 101 100" fill="none" xmlns="http://www.w3.org/2000/svg">
<path d="M50.567 0C53.4943 0 55.5853 2 55.5853 4.8V23.6C55.5853 26.4 53.4943 28.6 50.567 28.6C47.6396 28.6 45.3395 26.4 45.3395 23.6V4.8C45.3395 2 47.6396 0 50.567 0Z" fill="#0DACDF"/>
<path d="M26.939 10.6L38.4393 25.8C40.9485 29 38.4393 33.6 34.2574 33.6C32.5846 33.6 31.33 33 30.2845 31.6L18.7842 16.4C17.1114 14.2 17.5296 11.2 19.8296 9.6C22.1297 8 25.2662 8.4 26.939 10.6Z" fill="#0DACDF"/>
<path d="M4.14734 40.8C1.42908 40 -0.0346033 37.2 0.801786 34.6C1.63818 32 4.56554 30.6 7.2838 31.4L25.8935 37.2C28.6117 38 30.0754 40.8 29.239 43.4C28.6117 45.4 26.3117 46.8 24.2207 46.8C23.5934 46.8 23.3843 46.6 22.757 46.4L4.14734 40.8Z" fill="#0DACDF"/>
<path d="M29.239 56.6C30.0754 59.2 28.6117 62 25.8935 62.8L7.2838 68.6C6.65651 68.8 6.23832 68.8 5.61103 68.8C3.52005 68.8 1.42908 67.4 0.801786 65.4C-0.0346033 62.8 1.42908 60 4.14734 59.2L22.757 53.4C25.4753 52.6 28.4026 54 29.239 56.6Z" fill="#0DACDF"/>
<path d="M37.3938 67.4C39.6939 69 40.1121 72 38.4393 74.2L26.939 89.4C25.8935 90.8 24.4298 91.4 22.757 91.4C18.5751 91.4 16.275 86.8 18.7842 83.6L30.2845 68.4C31.9573 66.2 35.0938 65.8 37.3938 67.4Z" fill="#0DACDF"/>
<path d="M50.567 71.4C53.4943 71.4 55.5853 73.6 55.5853 76.4V95C55.5853 97.8 53.4943 100 50.567 100C47.6396 100 45.3395 97.8 45.3395 95V76.4C45.3395 73.6 47.6396 71.4 50.567 71.4Z" fill="#0DACDF"/>
<path d="M70.8494 68.4L82.3498 83.6C84.8589 86.8 82.3498 91.4 78.1678 91.4C76.495 91.4 75.2405 90.8 74.195 89.4L62.6946 74.2C61.0218 72 61.44 69 63.7401 67.4C66.0402 65.8 69.1766 66.2 70.8494 68.4Z" fill="#0DACDF"/>
<path d="M96.9866 59.2C99.7049 60 101.169 62.8 100.332 65.4C99.7049 67.4 97.4048 68.8 95.3138 68.8C94.6865 68.8 94.4774 68.8 93.8501 68.6L75.2404 62.8C72.5222 62 71.0585 59.2 71.8949 56.6C72.7313 54 75.6586 52.6 78.3769 53.4L96.9866 59.2Z" fill="#0DACDF"/>
<path d="M71.8949 43.4C71.0585 40.8 72.5222 38 75.2404 37.2L93.8501 31.4C96.5684 30.6 99.4958 32 100.332 34.6C101.169 37.2 99.7049 40 96.9866 40.8L78.3769 46.4C77.7496 46.6 77.3314 46.8 76.7041 46.8C74.6131 46.8 72.5222 45.4 71.8949 43.4Z" fill="#0DACDF"/>
<path d="M66.6675 33.6C62.4855 33.6 60.1854 29 62.6946 25.8L74.195 10.6C75.8677 8.4 79.0042 8 81.3043 9.6C83.6043 11.2 84.0225 14.2 82.3498 16.4L70.8494 31.6C69.8039 33 68.3402 33.6 66.6675 33.6Z" fill="#0DACDF"/>
</svg>
