<svg width="389" height="290" viewBox="0 0 389 290" fill="none" xmlns="http://www.w3.org/2000/svg">
<path d="M350.1 43.5H38.9C17.505 43.5 0 56.55 0 72.5V217.5C0 233.45 17.505 246.5 38.9 246.5H350.1C371.495 246.5 389 233.45 389 217.5V72.5C389 56.55 371.495 43.5 350.1 43.5ZM175.05 87H213.95V116H175.05V87ZM175.05 130.5H213.95V159.5H175.05V130.5ZM116.7 87H155.6V116H116.7V87ZM116.7 130.5H155.6V159.5H116.7V130.5ZM97.25 159.5H58.35V130.5H97.25V159.5ZM97.25 116H58.35V87H97.25V116ZM272.3 217.5H116.7V188.5H272.3V217.5ZM272.3 159.5H233.4V130.5H272.3V159.5ZM272.3 116H233.4V87H272.3V116ZM330.65 159.5H291.75V130.5H330.65V159.5ZM330.65 116H291.75V87H330.65V116Z" fill="#0DACDF"/>
</svg>
