<svg width="50" height="40" viewBox="0 0 50 40" fill="none" xmlns="http://www.w3.org/2000/svg">
<path d="M45.5354 39.6429C46.6593 39.6429 47.6332 39.2718 48.4611 38.5391L34.2953 24.3727C33.9554 24.6161 33.626 24.8528 33.3148 25.0778C32.2547 25.8589 31.3943 26.4683 30.7336 26.9051C30.073 27.3428 29.1941 27.789 28.0969 28.2445C26.9991 28.7006 25.9763 28.9279 25.0275 28.9279H24.9997H24.9719C24.023 28.9279 23.0002 28.7007 21.9024 28.2445C20.8047 27.789 19.9258 27.3428 19.2658 26.9051C18.6052 26.4683 17.7453 25.859 16.6846 25.0778C16.389 24.8611 16.0612 24.6234 15.7069 24.3689L1.53833 38.5391C2.36613 39.2718 3.34063 39.6429 4.46446 39.6429H45.5354V39.6429Z" fill="#0DACDF"/>
<path d="M2.81838 15.4522C1.75837 14.7455 0.818363 13.9361 0 13.0244V34.5774L12.4857 22.0917C9.98784 20.3478 6.76949 18.1372 2.81838 15.4522Z" fill="#0DACDF"/>
<path d="M47.2099 15.4522C43.4095 18.0245 40.1794 20.2389 37.5193 22.0967L50 34.5779V13.0244C49.1998 13.9178 48.2699 14.7266 47.2099 15.4522Z" fill="#0DACDF"/>
<path d="M45.5354 0.357086H4.46455C3.03171 0.357086 1.93012 0.840932 1.15842 1.80763C0.386083 2.77477 0.000549316 3.9843 0.000549316 5.43484C0.000549316 6.60651 0.512173 7.87604 1.53497 9.24379C2.55776 10.611 3.6461 11.6849 4.79943 12.466C5.4317 12.9128 7.3384 14.2383 10.5195 16.4422C12.2368 17.6322 13.7302 18.6694 15.0135 19.5645C16.1074 20.3267 17.0507 20.9867 17.8296 21.5345C17.919 21.5972 18.0596 21.6978 18.2463 21.8312C18.4473 21.9757 18.7018 22.1589 19.0157 22.3856C19.6202 22.8228 20.1224 23.1762 20.5223 23.4462C20.9218 23.7162 21.4057 24.0179 21.9734 24.3529C22.5407 24.6874 23.0757 24.9389 23.5779 25.1062C24.0802 25.2734 24.5452 25.3573 24.9729 25.3573H25.0007H25.0285C25.4561 25.3573 25.9212 25.2734 26.4235 25.1062C26.9256 24.9389 27.4602 24.6879 28.0279 24.3529C28.5951 24.0179 29.0784 23.7156 29.4791 23.4462C29.8791 23.1762 30.3813 22.8229 30.9859 22.3856C31.2991 22.1589 31.5536 21.9756 31.7547 21.8317C31.9414 21.6977 32.0819 21.5977 32.1719 21.5345C32.7786 21.1123 33.7242 20.4549 34.9954 19.5722C37.3086 17.965 40.7153 15.5994 45.2299 12.466C46.5877 11.5177 47.722 10.3732 48.6337 9.03436C49.5438 7.69548 50 6.29105 50 4.82154C50 3.59377 49.5577 2.5432 48.6748 1.66819C47.791 0.794273 46.7444 0.357086 45.5354 0.357086Z" fill="#0DACDF"/>
</svg>
