<svg width="200" height="200" viewBox="0 0 200 200" fill="none" xmlns="http://www.w3.org/2000/svg">
<path d="M100 0.0010004C44.7715 0.0010004 0 44.7721 0 100.001C0 125.987 9.91353 149.654 26.1617 167.436V167.437H26.1625C44.4479 187.447 70.7572 200 99.9998 200C155.228 200 200 155.229 200 100C200 44.7712 155.228 0.0010004 100 0.0010004ZM139.181 52.2015C147.748 52.2015 154.694 59.1468 154.694 67.7141C154.694 76.2814 147.748 83.2267 139.181 83.2267C130.614 83.2267 123.669 76.2814 123.669 67.7141C123.669 59.1468 130.614 52.2015 139.181 52.2015ZM59.4029 52.2015C67.9698 52.2015 74.9155 59.1468 74.9155 67.7141C74.9155 76.2814 67.9698 83.2267 59.4029 83.2267C50.836 83.2267 43.8903 76.2814 43.8903 67.7141C43.8903 59.1468 50.836 52.2015 59.4029 52.2015ZM143.595 150.262C133.03 138.047 117.418 130.318 99.9998 130.318C82.5818 130.318 66.9698 138.047 56.4043 150.262H37.3108C50.1053 129.017 73.3921 114.805 100 114.805C126.608 114.805 149.895 129.017 162.69 150.262H143.595V150.262Z" fill="#0DACDF"/>
</svg>
