<svg width="40" height="40" viewBox="0 0 40 40" fill="none" xmlns="http://www.w3.org/2000/svg">
<path d="M12.2854 0H4.57122C2.44204 0 0.714111 1.28 0.714111 2.85712V37.1428C0.714111 38.72 2.44211 39.9999 4.57122 39.9999H12.2855C14.4166 39.9999 16.1427 38.7214 16.1427 37.1428V2.85712C16.1426 1.28 14.4165 0 12.2854 0ZM35.4283 0H27.7141C25.583 0 23.8569 1.28 23.8569 2.85712V37.1428C23.8569 38.72 25.583 39.9999 27.7141 39.9999H35.4284C37.5595 39.9999 39.2856 38.7214 39.2856 37.1428V2.85712C39.2855 1.28 37.5594 0 35.4283 0Z" fill="white"/>
</svg>
