<svg width="300" height="300" viewBox="0 0 300 300" fill="none" xmlns="http://www.w3.org/2000/svg">
<path d="M48.5152 92.2477C69.0598 92.2477 85.7145 75.593 85.7145 55.0484C85.7145 34.5038 69.0598 17.8491 48.5152 17.8491C27.9706 17.8491 11.3159 34.5038 11.3159 55.0484C11.3159 75.593 27.9706 92.2477 48.5152 92.2477Z" fill="#0DACDF"/>
<path d="M296.161 65.2383H206.232V55.0581H182.379V65.2383H96.9626H90.891V77.5066H96.9626V104.506L82.9912 97.8478H62.0534L47.8703 114.292L34.1491 97.8478L4.00282 103.448L2.07839 170.312H14.8566L15.5494 184.197H17.4931V192.655V198.9V265.139H14.924L0 268.391V282.151H12.7109L27.5483 279.736L27.683 282.151H44.1176V266.823V265.158V198.929H53.48V265.158V266.823V282.151H69.9147L70.0494 279.736L84.8868 282.151H97.5977V268.391L82.6544 265.158H80.1046V198.929V192.674V184.216H82.462L85.5026 122.635L96.9626 127.821V198.592H184.871V221.137L136.356 275.868H153.791L186.545 238.88V275.868H196.562V238.918L229.267 275.868H246.982L198.197 221.137V198.592H296.17V77.5162H300V65.2383H296.161ZM287.578 189.557H198.178H184.871H105.555V131.699L141.321 147.883L141.186 125.589L105.555 108.605V77.5162H287.578V189.557Z" fill="#0DACDF"/>
</svg>
