<svg width="50" height="50" viewBox="0 0 50 50" fill="none" xmlns="http://www.w3.org/2000/svg">
<path d="M7.31846 43.8406C10.1266 46.7225 13.4293 48.7732 16.951 50V42.2509C15.2555 41.3834 13.6483 40.2546 12.2389 38.8028C5.19909 31.5654 5.19909 19.7984 12.2389 12.5647C19.2788 5.34181 30.7234 5.34181 37.7739 12.5647C44.8067 19.8056 44.8067 31.5654 37.7739 38.8028C37.7562 38.8246 37.6997 38.8609 37.675 38.8935H37.6679L33.4963 34.6143L33.521 48.2034L46.7388 48.2215L42.5848 43.9531C42.6096 43.9096 42.6484 43.866 42.6802 43.8406C52.4399 33.8158 52.4399 17.5517 42.6802 7.52681C32.9064 -2.50894 17.0888 -2.50894 7.31846 7.52681C-2.43419 17.5517 -2.44479 33.8158 7.31846 43.8406Z" fill="white"/>
</svg>
