<svg width="101" height="86" viewBox="0 0 101 86" fill="none" xmlns="http://www.w3.org/2000/svg">
<g clip-path="url(#clip0)">
<path d="M6.7712 21.4156C11.2872 14.828 17.4128 9.61206 25.1497 5.76696C32.888 1.92206 41.3355 0 50.4985 0C59.6606 0 68.1106 1.92206 75.8475 5.76696C83.5849 9.61147 89.7105 14.8274 94.2265 21.4156C98.7427 28.0043 101 35.1993 101 43.0001C101 50.8013 98.742 57.9951 94.2272 64.5842C89.7114 71.1719 83.5858 76.3878 75.8484 80.2332C68.1106 84.0779 59.6613 86.0002 50.4994 86.0002C41.3376 86.0002 32.8874 84.0779 25.15 80.2332C17.4131 76.3891 11.2877 71.1719 6.77213 64.5842C2.25729 57.9957 0.000221252 50.8009 0.000221252 43.0001C-1.52588e-05 35.1985 2.25729 28.0033 6.7712 21.4156ZM34.521 60.1882C33.687 60.897 33.2692 61.7377 33.2692 62.7076C33.2692 63.678 33.6868 64.5189 34.521 65.227L41.2291 70.9397C42.0605 71.649 43.0465 72.0041 44.1863 72.0028C45.3266 72.0028 46.3126 71.6476 47.1467 70.9397L76.999 45.5189C77.8321 44.809 78.2483 43.9701 78.2483 42.9993C78.2483 42.0288 77.8321 41.1886 76.999 40.4799L47.1467 15.0601C46.3128 14.3512 45.3268 13.9965 44.1863 13.9965C43.0465 13.9965 42.0607 14.3512 41.2291 15.0601L34.521 20.7728C33.687 21.4817 33.2692 22.3216 33.2692 23.2922C33.2692 24.2621 33.6868 25.1029 34.521 25.8112L54.707 43.0001L34.521 60.1882Z" fill="white"/>
</g>
<defs>
<clipPath id="clip0">
<rect width="101" height="86" fill="white" transform="matrix(-1 0 0 1 101 0)"/>
</clipPath>
</defs>
</svg>
