<svg width="95" height="50" viewBox="0 0 95 50" fill="none" xmlns="http://www.w3.org/2000/svg">
<path d="M87.2069 15.1356C84.3398 12.7825 79.8408 9.77854 74.7805 10.0269C73.8563 9.23437 71.0348 6.68676 68.5763 4.15437C65.9149 1.22407 60.4066 -1.20569 58.4515 0.645302C58.1876 1.02885 58.0718 2.07313 60.6093 5.34908C58.7397 3.57904 56.6182 1.84389 53.972 1.28508C50.6627 0.580851 48.4056 1.55264 51.9133 5.50511C57.2131 12.8408 58.0776 15.0632 57.91 15.9653C57.8048 16.5044 57.111 17.0819 55.7321 16.6043C50.762 15.246 39.3337 13.9156 35.0732 13.9156C15.4719 13.9156 9.92683 21.1232 6.94385 24.9976C6.94385 24.9976 4.30628 28.8229 4.18869 35.6876C1.78047 34.3826 -0.608456 32.6459 -2.13893 32.6459C-4.03768 32.6457 -5 33.5723 -5 35.3988C-5 37.2243 -1.28175 40.7894 3.51158 42.6478C4.52217 43.0579 5.74736 43.0529 7.00481 42.6331C7.44546 42.4813 7.71087 42.4262 7.84344 42.4047C10.1204 43.6027 12.0384 44.5267 13.542 45.1508C18.1631 48.6633 17.3448 48.1143 39.332 49.9931C39.332 49.9931 42.6878 50.1715 43.9963 48.7131C44.9726 47.0996 43.5808 46.0507 41.3854 45.1827C40.7867 44.9361 39.0518 44.3698 38.3541 44.2017C49.9973 44.9275 58.8368 45.7135 60.1821 46.1403C61.6933 48.1245 64.8182 49.3054 69.5094 49.6569C71.7178 49.6569 73.2493 49.1752 74.0331 48.2218C75.5732 46.5031 71.317 45.0024 69.0033 44.0336C66.9382 43.2078 65.921 41.7968 66.017 41.5236C66.0325 41.496 66.0508 41.4556 66.1922 41.4099C69.546 40.3747 72.5872 38.7353 75.2179 36.5382C77.638 34.5178 78.974 32.4975 79.186 30.5252C82.2378 30.4141 86.4165 29.0867 89.4178 27.9842C93.1239 26.6232 94.9997 25.0183 94.9997 23.2159C95.0048 20.6502 91.3551 18.5433 87.2069 15.1356ZM76.7313 18.0739C75.3174 18.0739 74.1646 17.4232 74.1646 16.6215C74.1646 15.8222 75.3174 15.1718 76.7313 15.1718C78.148 15.1718 79.2978 15.822 79.2978 16.6215C79.2978 17.4224 78.148 18.0739 76.7313 18.0739Z" fill="#E9E5E5"/>
</svg>
