<svg width="100" height="48" viewBox="0 0 100 48" fill="none" xmlns="http://www.w3.org/2000/svg">
<path d="M96.4602 4.83047C94.5058 4.83047 92.9227 6.41549 92.9227 8.36797C92.9227 9.16353 93.1942 9.88849 93.6352 10.4796L88.5281 19.2417C87.9434 19.2324 87.2996 19.2661 86.5704 19.3685V11.6308C87.841 11.0923 88.7309 9.8349 88.7309 8.36829C88.7309 6.41581 87.1484 4.83079 85.194 4.83079C83.2396 4.83079 81.6556 6.41581 81.6556 8.36829C81.6556 9.8349 82.5477 11.0923 83.8173 11.6308V20.0042C80.3998 21.0498 75.6325 23.3681 68.6426 28.1187C69.5145 26.6665 72.1509 21.4037 64.0541 20.285C62.2668 8.81886 52.3755 0.0362396 40.4067 0.0362396C27.1729 0.0362396 16.4439 10.7672 16.4439 23.9994C16.4439 24.8081 16.4866 25.6027 16.5633 26.3905C16.5633 26.3905 5.67258 30.9774 14.4385 35.8307C10.6353 37.7325 3.34431 43.0152 3.34431 43.0152C3.34431 43.0152 -5.20693 47.9913 5.03427 47.9637H68.8534C68.8534 47.9637 75.5019 47.9913 81.4245 39.3159C87.9864 29.7095 96.8531 28.8597 96.8531 24.8424C96.8531 21.8588 94.2302 20.2799 91.4943 19.6194L96.0158 11.8634C96.1644 11.8804 96.3081 11.9061 96.4602 11.9061C98.4156 11.9061 99.999 10.324 99.999 8.36861C99.9994 6.41581 98.4156 4.83047 96.4602 4.83047Z" fill="#E9E5E5"/>
</svg>
