<svg width="100" height="51" viewBox="0 0 100 51" fill="none" xmlns="http://www.w3.org/2000/svg">
<path d="M99.1465 7.57358C97.2266 5.85828 98.4846 3.3568 95.3061 2.64157C93.0171 2.12675 92.585 2.35304 92.5216 2.52021C92.4921 1.94296 92.2331 -0.508085 89.9435 1.14017C89.9435 1.14017 88.6853 0.782919 88.8845 2.49841C88.8845 2.49841 86.3022 3.35606 84.2496 4.99988C82.1972 6.64352 74.2518 10.289 62.9306 7.2156C51.6093 4.14223 41.7442 -0.00380182 33.3354 6.28627C33.3354 6.28627 24.7284 10.861 20.756 20.5101C16.7837 30.1593 11.6854 33.0902 4.53525 32.947C-2.61562 32.8039 -0.297818 40.6667 4.53525 37.6642C9.36832 34.6623 15.4594 38.0215 21.3521 28.0867C27.2448 18.151 26.8477 15.0776 30.5554 12.8619C30.5554 12.8619 31.0853 16.7215 37.5735 20.6525C37.5735 20.6525 34.2631 22.8682 34.9249 24.0831C35.5868 25.2978 37.5073 28.2289 37.5073 28.2289C37.5073 28.2289 35.852 29.4438 36.5802 30.5163C37.3084 31.5888 42.2077 36.8779 42.6713 37.8072C43.1348 38.7365 45.2536 43.0965 46.6435 42.2388C46.6435 42.2388 48.0341 44.0973 48.9606 43.382C48.9606 43.382 51.4103 43.0246 49.4241 40.3085C47.4379 37.5924 46.9744 37.1636 46.9744 37.1636C46.9744 37.1636 48.8942 34.6622 43.7966 29.2299C43.7966 29.2299 52.1393 23.4403 51.2784 21.296C50.4178 19.1518 59.1574 31.0882 63.3943 27.8C63.3943 27.8 59.8192 34.0901 59.4221 36.5914C59.0249 39.0928 56.6736 42.7564 53.132 42.9529C53.132 42.9529 49.6887 42.8813 50.5497 49.6717C50.5497 49.6717 51.6749 51.387 52.2712 50.1007C52.8673 48.8141 53.5955 46.9556 55.2508 46.1696C56.9061 45.3835 60.8119 44.1686 62.6662 39.6655C64.52 35.1627 68.9559 31.5171 68.9559 31.5171C68.9559 31.5171 72.7962 39.5942 72.7962 40.3087C72.7962 41.0232 69.6185 43.3105 69.3531 44.8834C69.3531 44.8834 66.1753 47.5279 67.1679 48.3857C67.1679 48.3857 67.565 50.5298 69.3531 49.0293C71.141 47.5286 72.7298 46.17 73.7888 45.527C74.8478 44.8834 74.9806 43.9548 76.2386 42.4534C77.4965 40.9522 76.7021 39.3801 75.7086 37.236C74.7152 35.0918 74.2524 29.945 74.2524 29.945C74.2524 29.945 80.476 28.3625 81.535 25.5799C82.594 22.7974 86.0371 17.9371 88.0896 16.1501C90.142 14.3633 94.2468 13.8627 95.0414 12.9336C95.0414 12.9336 97.2929 14.6489 98.2192 12.29L97.8221 11.7896C97.8221 11.7896 99.1463 11.3607 99.1463 10.3599C99.1463 10.3599 101.067 9.28889 99.1465 7.57358Z" fill="#E9E5E5"/>
</svg>
