<svg width="100" height="50" viewBox="0 0 100 50" fill="none" xmlns="http://www.w3.org/2000/svg">
<path d="M91.4531 0.0846777C81.465 0.553068 84.6346 12.1103 75.6813 12.9831C75.7071 12.2997 75.7221 11.6112 75.7221 10.9102C75.7221 10.3553 75.2795 9.9016 74.7233 9.89148C71.3005 9.82158 66.1851 9.00304 60.7676 8.13942C54.3921 7.12425 47.7984 6.0725 43.0099 6.0725C41.6407 6.0725 40.5047 6.15579 39.5369 6.33054C30.4036 7.96108 23.4048 16.657 16.6383 25.0639C11.2123 31.8016 6.09008 38.167 0.808113 39.292C0.323391 39.3988 -0.0172864 39.8351 0.000678315 40.332C0.0183164 40.8265 0.392637 41.2357 0.884871 41.303C2.83192 41.5669 4.65486 41.8211 6.37621 42.068L1.0214 49.9238H10.1406L13.3903 43.0998C15.7594 43.4575 17.8952 43.7926 19.8302 44.0912C21.5303 44.3583 23.074 44.5991 24.5046 44.8124L22.3185 49.9235H31.5017V45.7518C33.9423 46.014 36.1647 46.1512 38.537 46.1512C39.7201 46.1512 40.9126 46.1163 42.1888 46.0454C44.193 45.936 46.4811 45.6887 48.8968 45.2184V49.9242H57.0159L55.7878 43.2615C58.7216 42.132 61.6427 40.5776 64.3106 38.4447C65.3418 37.618 66.3001 36.7259 67.1925 35.7803C71.8515 41.6519 71.6405 49.9245 71.6405 49.9245H81.1135C80.9068 42.7667 74.6861 34.6103 71.1199 30.5042C72.5933 27.9425 73.7153 25.09 74.4806 21.9543C81.9807 19.4014 89.2999 12.0126 92.5166 10.9109C95.9005 9.75037 100.001 10.6003 100.001 6.46511C100 1.4402 94.447 -0.053161 91.4531 0.0846777Z" fill="#0DACDF"/>
</svg>
