<svg width="100" height="50" viewBox="0 0 100 50" fill="none" xmlns="http://www.w3.org/2000/svg">
<path d="M92.2069 15.1356C89.3398 12.7825 84.8408 9.77854 79.7805 10.0269C78.8563 9.23437 76.0348 6.68676 73.5763 4.15437C70.9149 1.22407 65.4066 -1.20569 63.4515 0.645302C63.1876 1.02885 63.0718 2.07313 65.6093 5.34908C63.7397 3.57904 61.6182 1.84389 58.972 1.28508C55.6627 0.580851 53.4056 1.55264 56.9133 5.50511C62.2131 12.8408 63.0776 15.0632 62.91 15.9653C62.8048 16.5044 62.111 17.0819 60.7321 16.6043C55.762 15.246 44.3337 13.9156 40.0732 13.9156C20.4719 13.9156 14.9268 21.1232 11.9439 24.9976C11.9439 24.9976 9.30628 28.8229 9.18869 35.6876C6.78047 34.3826 4.39154 32.6459 2.86107 32.6459C0.962325 32.6457 0 33.5723 0 35.3988C0 37.2243 3.71825 40.7894 8.51158 42.6478C9.52217 43.0579 10.7474 43.0529 12.0048 42.6331C12.4455 42.4813 12.7109 42.4262 12.8434 42.4047C15.1204 43.6027 17.0384 44.5267 18.542 45.1508C23.1631 48.6633 22.3448 48.1143 44.332 49.9931C44.332 49.9931 47.6878 50.1715 48.9963 48.7131C49.9726 47.0996 48.5808 46.0507 46.3854 45.1827C45.7867 44.9361 44.0518 44.3698 43.3541 44.2017C54.9973 44.9275 63.8368 45.7135 65.1821 46.1403C66.6933 48.1245 69.8182 49.3054 74.5094 49.6569C76.7178 49.6569 78.2493 49.1752 79.0331 48.2218C80.5732 46.5031 76.317 45.0024 74.0033 44.0336C71.9382 43.2078 70.921 41.7968 71.017 41.5236C71.0325 41.4961 71.0508 41.4556 71.1922 41.4099C74.546 40.3747 77.5872 38.7353 80.2179 36.5382C82.638 34.5178 83.974 32.4975 84.186 30.5252C87.2378 30.4141 91.4165 29.0867 94.4178 27.9842C98.1239 26.6232 99.9997 25.0183 99.9997 23.2159C100.005 20.6502 96.3551 18.5433 92.2069 15.1356ZM81.7313 18.0739C80.3174 18.0739 79.1646 17.4232 79.1646 16.6215C79.1646 15.8222 80.3174 15.1718 81.7313 15.1718C83.148 15.1718 84.2978 15.822 84.2978 16.6215C84.2978 17.4224 83.148 18.0739 81.7313 18.0739Z" fill="#0DACDF"/>
</svg>
