<svg width="200" height="200" viewBox="0 0 300 284" fill="none" xmlns="http://www.w3.org/2000/svg">
<path d="M293.912 217.353L187.818 22.0381C179.811 8.55801 165.669 0.507233 149.989 0.507233C134.309 0.507233 120.167 8.55801 112.16 22.0381C112.099 22.1412 112.048 22.2443 111.988 22.3475L6.24751 217.045C-1.93159 230.809 -2.08628 247.339 5.82622 261.258C13.7569 275.185 28.0444 283.493 44.068 283.493H255.324C271.348 283.493 286.222 275.185 294.153 261.258C302.065 247.339 301.911 230.808 293.912 217.353ZM132.393 89.9383C132.393 80.2199 140.271 72.3426 149.989 72.3426C159.707 72.3426 167.585 80.2205 167.585 89.9383V160.322C167.585 170.039 159.707 177.917 149.989 177.917C140.271 177.917 132.393 170.038 132.393 160.322V89.9383V89.9383ZM149.989 248.301C135.435 248.301 123.595 236.462 123.595 221.907C123.595 207.353 135.434 195.514 149.989 195.514C164.543 195.514 176.383 207.353 176.383 221.907C176.383 236.461 164.544 248.301 149.989 248.301Z" fill="#0DACDF"/>
</svg>
